<?xml version="1.0" encoding="utf-8"?>
<!-- Generator: Adobe Illustrator 26.3.1, SVG Export Plug-In . SVG Version: 6.00 Build 0)  -->
<svg version="1.1" id="レイヤー_1" xmlns="http://www.w3.org/2000/svg" xmlns:xlink="http://www.w3.org/1999/xlink" x="0px"
	 y="0px" viewBox="0 0 50 20" style="enable-background:new 0 0 50 20;" xml:space="preserve">
<style type="text/css">
	.st0{fill:#339900;}
</style>
<g>
	<path class="st0" d="M38.63,9.3h-3.92c-0.33-1.99-2.05-3.5-4.13-3.5h-3.15V4.75c0-0.48-0.39-0.88-0.88-0.88
		c-0.48,0-0.88,0.39-0.88,0.88v10.5c0,0.48,0.39,0.88,0.88,0.88c0.48,0,0.88-0.39,0.88-0.88V14.2h3.15c2.08,0,3.8-1.52,4.13-3.5
		h3.92V9.3z"/>
	<path class="st0" d="M23.45,3.87c-0.48,0-0.88,0.39-0.88,0.88V5.8h-3.15c-2.08,0-3.8,1.52-4.13,3.5h-3.92v1.4h3.92
		c0.33,1.98,2.05,3.5,4.13,3.5h3.15v1.05c0,0.48,0.39,0.88,0.88,0.88c0.48,0,0.88-0.39,0.88-0.88V4.75
		C24.32,4.27,23.93,3.87,23.45,3.87z"/>
</g>
</svg>
