<?xml version="1.0" encoding="utf-8"?>
<!-- Generator: Adobe Illustrator 26.3.1, SVG Export Plug-In . SVG Version: 6.00 Build 0)  -->
<svg version="1.1" id="レイヤー_1" xmlns="http://www.w3.org/2000/svg" xmlns:xlink="http://www.w3.org/1999/xlink" x="0px"
	 y="0px" viewBox="0 0 50 20" style="enable-background:new 0 0 50 20;" xml:space="preserve">
<g>
	<path d="M41.63,9.3h-3.92c-0.33-1.99-2.05-3.5-4.13-3.5h-3.15V4.75c0-0.48-0.39-0.88-0.88-0.88c-0.48,0-0.88,0.39-0.88,0.88v10.5
		c0,0.48,0.39,0.88,0.88,0.88c0.48,0,0.88-0.39,0.88-0.88V14.2h3.15c2.08,0,3.8-1.52,4.13-3.5h3.92V9.3z"/>
	<path d="M20.45,3.87c-0.48,0-0.88,0.39-0.88,0.88V5.8h-3.15c-2.08,0-3.8,1.52-4.13,3.5H8.37v1.4h3.92c0.33,1.98,2.05,3.5,4.13,3.5
		h3.15v1.05c0,0.48,0.39,0.88,0.88,0.88c0.48,0,0.88-0.39,0.88-0.88V4.75C21.32,4.27,20.93,3.87,20.45,3.87z"/>
	<path d="M24.82,12.45c0,0.39,0.31,0.7,0.7,0.7h2.45v-1.4h-2.45C25.14,11.75,24.82,12.06,24.82,12.45z"/>
	<path d="M24.82,7.55c0,0.39,0.31,0.7,0.7,0.7h2.45v-1.4h-2.45C25.14,6.85,24.82,7.16,24.82,7.55z"/>
</g>
</svg>
