<?xml version="1.0" encoding="utf-8"?>
<!-- Generator: Adobe Illustrator 26.3.1, SVG Export Plug-In . SVG Version: 6.00 Build 0)  -->
<svg version="1.1" id="レイヤー_1" xmlns="http://www.w3.org/2000/svg" xmlns:xlink="http://www.w3.org/1999/xlink" x="0px"
	 y="0px" viewBox="0 0 100 20" style="enable-background:new 0 0 100 20;" xml:space="preserve">
<style type="text/css">
	.st0{fill:#FFFFFF;}
</style>
<g>
	<path class="st0" d="M25.82,5.01h-4.83c-0.29,0-0.53,0.04-0.71,0.13s-0.32,0.22-0.41,0.41c-0.09,0.19-0.13,0.43-0.13,0.72v7.78
		c0,0.42,0.1,0.73,0.29,0.94s0.44,0.31,0.74,0.31c0.3,0,0.54-0.1,0.73-0.31c0.19-0.2,0.29-0.52,0.29-0.94v-3.33h3.37
		c0.31,0,0.54-0.07,0.7-0.21c0.16-0.14,0.23-0.32,0.23-0.56s-0.08-0.42-0.23-0.56c-0.15-0.14-0.39-0.21-0.7-0.21h-3.37V6.59h4.03
		c0.33,0,0.57-0.07,0.73-0.22c0.16-0.14,0.24-0.34,0.24-0.58c0-0.23-0.08-0.42-0.24-0.57C26.38,5.08,26.14,5.01,25.82,5.01z"/>
	<path class="st0" d="M34.64,12.67c0-0.38,0.01-0.72,0.01-1.03c0-0.31,0-0.68,0-1.12c0-0.7-0.1-1.26-0.29-1.68
		c-0.2-0.42-0.53-0.73-1-0.93c-0.47-0.2-1.12-0.29-1.95-0.29c-0.74,0-1.36,0.1-1.85,0.3c-0.5,0.2-0.86,0.46-1.1,0.77
		S28.1,9.33,28.1,9.66c0,0.21,0.08,0.38,0.23,0.52s0.34,0.2,0.55,0.2c0.23,0,0.39-0.04,0.46-0.13c0.07-0.09,0.19-0.26,0.37-0.53
		s0.38-0.47,0.62-0.6c0.24-0.13,0.6-0.2,1.08-0.2c0.56,0,0.92,0.12,1.1,0.35s0.28,0.6,0.3,1.09c-0.4,0.11-0.76,0.21-1.1,0.29
		s-0.74,0.17-1.22,0.27c-0.47,0.1-0.77,0.16-0.89,0.19c-0.57,0.12-1.02,0.37-1.34,0.73s-0.49,0.8-0.49,1.32
		c0,0.38,0.1,0.74,0.3,1.06c0.2,0.33,0.48,0.58,0.84,0.78c0.37,0.19,0.79,0.29,1.27,0.29c0.53,0,1.01-0.09,1.43-0.27
		c0.43-0.18,0.87-0.44,1.32-0.8c0.21,0.34,0.41,0.61,0.6,0.79c0.19,0.18,0.38,0.27,0.57,0.27c0.23,0,0.44-0.08,0.62-0.24
		c0.18-0.16,0.27-0.33,0.27-0.53c0-0.11-0.06-0.36-0.18-0.74C34.7,13.4,34.64,13.03,34.64,12.67z M32.81,11.77
		c0,0.65-0.09,1.12-0.26,1.41c-0.15,0.26-0.38,0.47-0.69,0.63c-0.31,0.16-0.66,0.24-1.03,0.24c-0.35,0-0.63-0.1-0.85-0.3
		s-0.32-0.44-0.32-0.73c0-0.28,0.09-0.49,0.28-0.64c0.18-0.15,0.38-0.26,0.58-0.31c0.2-0.05,0.57-0.14,1.09-0.25
		c0.53-0.11,0.93-0.22,1.2-0.32V11.77z"/>
	<path class="st0" d="M42.39,8.09c-0.47-0.3-1.02-0.44-1.64-0.44c-0.54,0-1,0.1-1.36,0.29c-0.37,0.2-0.73,0.48-1.08,0.84V5.91
		c0-0.34-0.08-0.61-0.23-0.8c-0.16-0.19-0.38-0.28-0.67-0.28c-0.28,0-0.49,0.1-0.64,0.29c-0.15,0.2-0.23,0.48-0.23,0.87v8.22
		c0,0.35,0.08,0.62,0.24,0.8c0.16,0.18,0.37,0.27,0.64,0.27c0.26,0,0.48-0.09,0.65-0.27c0.17-0.18,0.26-0.45,0.26-0.8v-0.19
		c0.21,0.24,0.37,0.42,0.5,0.54s0.28,0.24,0.46,0.35s0.4,0.2,0.65,0.27c0.26,0.07,0.53,0.1,0.82,0.1c0.47,0,0.91-0.1,1.3-0.29
		c0.39-0.19,0.73-0.46,1-0.81c0.28-0.35,0.49-0.76,0.63-1.24c0.14-0.48,0.22-1,0.22-1.57c0-0.77-0.13-1.44-0.39-2
		C43.23,8.82,42.86,8.39,42.39,8.09z M41.47,13.21c-0.34,0.41-0.75,0.62-1.22,0.62c-0.56,0-1.01-0.2-1.35-0.6
		c-0.34-0.4-0.51-0.98-0.51-1.73c0-0.51,0.08-0.95,0.24-1.32c0.16-0.37,0.38-0.65,0.66-0.85c0.28-0.2,0.6-0.29,0.96-0.29
		c0.35,0,0.65,0.1,0.92,0.29c0.26,0.2,0.46,0.47,0.61,0.83c0.14,0.36,0.21,0.79,0.21,1.28C41.99,12.21,41.82,12.8,41.47,13.21z"/>
	<path class="st0" d="M67.44,4.84c-0.27,0-0.47,0.07-0.61,0.21c-0.14,0.14-0.24,0.29-0.3,0.47c-0.06,0.17-0.12,0.42-0.18,0.72
		l-1.32,5.9l-1.5-5.52c-0.12-0.45-0.22-0.78-0.3-0.98s-0.21-0.38-0.4-0.55c-0.19-0.17-0.46-0.25-0.8-0.25
		c-0.34,0-0.61,0.08-0.81,0.24c-0.2,0.16-0.34,0.35-0.43,0.57c-0.09,0.22-0.19,0.54-0.3,0.97l-1.48,5.52l-1.32-5.9
		c-0.1-0.45-0.21-0.8-0.34-1.04s-0.38-0.36-0.75-0.36c-0.27,0-0.5,0.09-0.68,0.27c-0.18,0.18-0.28,0.4-0.28,0.66
		c0,0.21,0.05,0.51,0.15,0.9l1.68,6.8c0.05,0.2,0.11,0.42,0.17,0.66s0.15,0.44,0.25,0.61s0.23,0.31,0.4,0.4
		c0.16,0.09,0.37,0.14,0.62,0.14c0.31,0,0.56-0.08,0.75-0.24c0.19-0.16,0.32-0.34,0.4-0.54s0.18-0.53,0.31-0.99l1.65-6.06l1.63,6.06
		c0.13,0.47,0.24,0.81,0.31,1c0.07,0.2,0.2,0.37,0.39,0.53c0.19,0.16,0.44,0.23,0.75,0.23c0.33,0,0.59-0.08,0.77-0.24
		c0.18-0.16,0.31-0.35,0.39-0.56c0.08-0.21,0.17-0.55,0.29-1.01l1.68-6.8c0.1-0.41,0.15-0.71,0.15-0.9c0-0.27-0.09-0.49-0.28-0.67
		S67.7,4.84,67.44,4.84z"/>
	<path class="st0" d="M82.26,7.93c-0.37-0.2-0.76-0.3-1.15-0.3c-0.4,0-0.71,0.1-0.95,0.3c-0.24,0.2-0.47,0.49-0.69,0.88
		c-0.01-0.39-0.09-0.68-0.23-0.88c-0.14-0.2-0.36-0.3-0.68-0.3c-0.61,0-0.92,0.42-0.92,1.27v5.24c0,0.38,0.09,0.66,0.26,0.85
		c0.17,0.19,0.4,0.29,0.67,0.29c0.28,0,0.5-0.1,0.68-0.29c0.18-0.19,0.27-0.48,0.27-0.86v-1.57c0-0.57,0.02-1.04,0.06-1.44
		c0.04-0.39,0.1-0.73,0.2-1.02c0.1-0.28,0.23-0.5,0.41-0.64c0.17-0.14,0.4-0.22,0.68-0.22c0.2,0,0.44,0.04,0.7,0.13
		c0.26,0.09,0.43,0.13,0.5,0.13c0.18,0,0.35-0.07,0.51-0.22c0.16-0.15,0.24-0.34,0.24-0.57C82.82,8.39,82.64,8.13,82.26,7.93z"/>
	<path class="st0" d="M90.06,13.47l-1.93-3.03l1-0.92c0.51-0.46,0.77-0.83,0.77-1.1c0-0.23-0.08-0.41-0.23-0.56
		c-0.16-0.15-0.35-0.22-0.59-0.22c-0.2,0-0.37,0.05-0.5,0.15s-0.34,0.29-0.6,0.57l-2.12,2.22V6.01c0-0.39-0.09-0.68-0.26-0.88
		s-0.4-0.3-0.69-0.3c-0.3,0-0.53,0.11-0.69,0.33s-0.24,0.54-0.24,0.95v8.02c0,0.38,0.08,0.66,0.25,0.85
		c0.17,0.19,0.39,0.29,0.68,0.29c0.25,0,0.47-0.1,0.66-0.29c0.19-0.2,0.29-0.47,0.29-0.84v-1.5l1.02-0.97l1.66,2.73
		c0.21,0.33,0.38,0.55,0.5,0.68c0.12,0.12,0.3,0.19,0.53,0.19c0.27,0,0.48-0.09,0.64-0.26c0.16-0.17,0.24-0.41,0.24-0.71
		c0-0.11-0.03-0.22-0.09-0.33C90.3,13.87,90.2,13.7,90.06,13.47z"/>
	<path class="st0" d="M97.71,11.9c-0.19-0.27-0.47-0.5-0.84-0.7c-0.37-0.2-0.85-0.37-1.43-0.51c-0.49-0.12-0.88-0.22-1.16-0.3
		c-0.28-0.08-0.5-0.19-0.67-0.31c-0.17-0.13-0.25-0.29-0.25-0.49c0-0.22,0.11-0.4,0.34-0.54s0.51-0.22,0.85-0.22
		c0.33,0,0.59,0.06,0.79,0.17c0.19,0.11,0.36,0.26,0.5,0.44c0.17,0.22,0.33,0.39,0.47,0.5c0.14,0.11,0.3,0.17,0.49,0.17
		c0.27,0,0.47-0.07,0.62-0.21s0.22-0.31,0.22-0.53c0-0.2-0.07-0.4-0.2-0.61c-0.14-0.21-0.33-0.4-0.59-0.57s-0.58-0.31-0.97-0.41
		c-0.39-0.1-0.83-0.15-1.31-0.15c-0.62,0-1.15,0.1-1.59,0.3c-0.44,0.2-0.77,0.47-1,0.8c-0.23,0.34-0.34,0.69-0.34,1.07
		c0,0.42,0.12,0.78,0.37,1.07c0.24,0.29,0.57,0.52,0.98,0.7s0.93,0.35,1.58,0.51c0.57,0.14,0.99,0.28,1.24,0.43
		c0.25,0.15,0.38,0.39,0.38,0.72c0,0.22-0.12,0.41-0.36,0.58c-0.24,0.17-0.55,0.25-0.93,0.25c-0.46,0-0.83-0.08-1.1-0.25
		c-0.27-0.17-0.5-0.42-0.69-0.75c-0.1-0.17-0.2-0.31-0.3-0.41c-0.11-0.1-0.26-0.14-0.45-0.14c-0.23,0-0.41,0.07-0.56,0.22
		c-0.15,0.15-0.22,0.32-0.22,0.53c0,0.31,0.11,0.62,0.34,0.93c0.23,0.31,0.59,0.57,1.07,0.78s1.06,0.31,1.74,0.31
		c0.71,0,1.31-0.1,1.8-0.29c0.49-0.19,0.87-0.47,1.12-0.84c0.25-0.37,0.38-0.81,0.38-1.33C98,12.48,97.9,12.17,97.71,11.9z"/>
	<path class="st0" d="M11.14,2C6.97,2,3.59,5.38,3.59,9.55c0,4.17,3.38,7.55,7.55,7.55c4.17,0,7.55-3.38,7.55-7.55
		C18.69,5.38,15.31,2,11.14,2z M15.18,6.48C15,6.63,14.74,6.71,14.39,6.71h-2.23v7.34c0,0.42-0.09,0.74-0.28,0.94
		c-0.19,0.2-0.43,0.31-0.73,0.31c-0.3,0-0.55-0.1-0.74-0.31c-0.19-0.21-0.29-0.52-0.29-0.94V6.71H7.88c-0.35,0-0.61-0.08-0.78-0.23
		S6.85,6.12,6.85,5.87c0-0.26,0.09-0.47,0.27-0.62c0.18-0.15,0.43-0.23,0.77-0.23h6.51c0.35,0,0.62,0.08,0.79,0.23
		c0.17,0.16,0.26,0.36,0.26,0.61S15.35,6.32,15.18,6.48z"/>
	<path class="st0" d="M52.47,12.14c-0.88-0.1-1.29,0.02-1.29,0.02l-0.54-0.74c1.01-1.36,2.47-3.32,2.85-3.94
		c0.61-0.98,0.28-1.78,0.1-2.08l-3.67,5.04L46.23,5.4c-0.18,0.31-0.51,1.1,0.1,2.08c0.39,0.62,1.85,2.6,2.86,3.95l-0.81,1.11
		c0,0-0.41-0.24-1.32-0.12c-1.49,0.2-2,0.96-2.13,1.74c-0.15,0.9,0.51,1.63,1.57,1.31c0.78-0.24,2.21-2.35,2.34-2.55
		c0.13-0.2,0.76-0.12,0.76-0.12s0.11-0.15,0.3-0.4c0.19,0.25,0.3,0.4,0.3,0.4s0.63-0.08,0.76,0.12c0.13,0.2,1.68,2.52,2.46,2.76
		c1.07,0.33,1.59-0.61,1.45-1.51C54.75,13.38,53.97,12.3,52.47,12.14z M46.99,14.4c-0.36,0.39-0.69,0.76-1.09,0.59
		c-0.41-0.16-0.48-0.8-0.02-1.37c0.46-0.57,1.27-0.92,1.9-0.49C47.98,13.28,47.34,14.01,46.99,14.4z M54.04,15.2
		c-0.41,0.16-0.86-0.41-1.22-0.8c-0.36-0.39-1.25-1.51-1.04-1.65c0.63-0.43,1.7,0.31,2.16,0.88C54.4,14.2,54.45,15.04,54.04,15.2z"
		/>
	<path class="st0" d="M76.52,10.72l-0.85-0.16c-0.06-0.01-0.12-0.07-0.14-0.12l-0.25-0.59c-0.03-0.05-0.02-0.14,0.01-0.18l0.47-0.72
		c0.03-0.05,0.02-0.12-0.02-0.16l-0.61-0.6c-0.04-0.04-0.12-0.05-0.16-0.01l-0.71,0.49c-0.05,0.03-0.1,0.04-0.18,0.01
		c-0.05-0.02-0.2-0.12-0.53-0.22c-0.06-0.02-0.11-0.08-0.12-0.14l-0.16-0.85c-0.01-0.06-0.07-0.11-0.13-0.11H72.2
		c-0.06,0-0.12,0.05-0.13,0.11l-0.16,0.85c-0.01,0.06-0.06,0.12-0.12,0.14c-0.33,0.1-0.47,0.2-0.53,0.22
		c-0.08,0.03-0.13,0.02-0.18-0.01l-0.71-0.49c-0.05-0.03-0.12-0.03-0.16,0.01l-0.61,0.6c-0.04,0.04-0.05,0.11-0.02,0.16l0.47,0.72
		c0.03,0.05,0.04,0.13,0.01,0.18l-0.25,0.59c-0.02,0.06-0.08,0.11-0.14,0.12l-0.85,0.16c-0.06,0.01-0.11,0.07-0.11,0.13v0.95
		c0,0.06,0.05,0.12,0.11,0.13l0.85,0.16c0.06,0.01,0.12,0.06,0.14,0.12l0.25,0.59c0.03,0.05,0.02,0.14-0.01,0.18l-0.47,0.72
		c-0.03,0.05-0.02,0.12,0.02,0.16l0.61,0.6c0.04,0.04,0.12,0.05,0.16,0.01l0.71-0.49c0.05-0.03,0.1-0.04,0.18-0.01
		c0.05,0.02,0.2,0.12,0.53,0.22c0.06,0.02,0.11,0.08,0.12,0.14l0.16,0.85c0.01,0.06,0.07,0.11,0.13,0.11h0.95
		c0.06,0,0.12-0.05,0.13-0.11l0.16-0.85c0.01-0.06,0.06-0.12,0.12-0.14c0.33-0.1,0.47-0.2,0.53-0.22c0.08-0.02,0.13-0.02,0.18,0.01
		l0.71,0.49c0.05,0.03,0.12,0.03,0.16-0.01l0.61-0.6c0.04-0.04,0.05-0.11,0.02-0.16l-0.47-0.72c-0.03-0.05-0.04-0.13-0.01-0.18
		l0.25-0.59c0.02-0.06,0.08-0.11,0.14-0.12l0.85-0.16c0.06-0.01,0.11-0.07,0.11-0.13v-0.95C76.63,10.79,76.58,10.73,76.52,10.72z
		 M72.67,12.86c-0.86,0-1.56-0.69-1.58-1.54c0.02-0.85,0.72-1.54,1.58-1.54c0.86,0,1.56,0.69,1.58,1.54
		C74.23,12.18,73.53,12.86,72.67,12.86z"/>
</g>
</svg>
