<?xml version="1.0" encoding="utf-8"?>
<!-- Generator: Adobe Illustrator 26.3.1, SVG Export Plug-In . SVG Version: 6.00 Build 0)  -->
<svg version="1.1" id="レイヤー_1" xmlns="http://www.w3.org/2000/svg" xmlns:xlink="http://www.w3.org/1999/xlink" x="0px"
	 y="0px" viewBox="0 0 400 50" style="enable-background:new 0 0 400 50;" xml:space="preserve">
<style type="text/css">
	.st0{fill:none;stroke:#FFFFFF;stroke-width:2.1075;}
	.st1{fill:#FFFFFF;}
	.st2{fill:#4C4C4C;}
	.st3{fill:none;}
	.st4{fill:#E18CB5;}
	.st5{fill:#7AC3F7;}
	.st6{fill:#F0BF3E;}
</style>
<g>
	<g>
		<path class="st0" d="M388.4,35.4h-3.42c-3.45-2.44-4.84-6.32-4.29-11.87h3.56c1.72,0,3.15-1.42,3.15-3.15V9.63
			c0-1.72-1.42-3.15-3.15-3.15h-21.49c-1.72,0-3.15,1.42-3.15,3.15v10.75c0,1.72,1.42,3.15,3.15,3.15h3.55
			c0.56,5.49-0.8,9.42-4.21,11.87h-3.56c-0.89,0-1.6,0.71-1.6,1.6v4.45c0,0.89,0.71,1.6,1.6,1.6h6.89c0.89,0,1.6-0.77,1.6-1.6V37
			c0-0.89-0.71-1.6-1.6-1.6h-1.11c2.76-2.77,3.92-6.74,3.48-11.87h4.93V35.4h-2.67c-0.89,0-1.6,0.71-1.6,1.6v4.45
			c0,0.89,0.71,1.6,1.6,1.6h6.89c0.89,0,1.6-0.71,1.6-1.6V37c0-0.89-0.71-1.6-1.6-1.6h-2.73V23.52h5.04
			c-0.51,5.14,0.63,9.13,3.4,11.87h-1.13c-0.89,0-1.6,0.71-1.6,1.6v4.45c0,0.89,0.71,1.6,1.6,1.6h6.89c0.89,0,1.6-0.77,1.6-1.6V37
			C390,36.11,389.29,35.4,388.4,35.4z"/>
		<path class="st1" d="M388.4,35.4h-3.42c-3.45-2.44-4.84-6.32-4.29-11.87h3.56c1.72,0,3.15-1.42,3.15-3.15V9.63
			c0-1.72-1.42-3.15-3.15-3.15h-21.49c-1.72,0-3.15,1.42-3.15,3.15v10.75c0,1.72,1.42,3.15,3.15,3.15h3.55
			c0.56,5.49-0.8,9.42-4.21,11.87h-3.56c-0.89,0-1.6,0.71-1.6,1.6v4.45c0,0.89,0.71,1.6,1.6,1.6h6.89c0.89,0,1.6-0.77,1.6-1.6V37
			c0-0.89-0.71-1.6-1.6-1.6h-1.11c2.76-2.77,3.92-6.74,3.48-11.87h4.93V35.4h-2.67c-0.89,0-1.6,0.71-1.6,1.6v4.45
			c0,0.89,0.71,1.6,1.6,1.6h6.89c0.89,0,1.6-0.71,1.6-1.6V37c0-0.89-0.71-1.6-1.6-1.6h-2.73V23.52h5.04
			c-0.51,5.14,0.63,9.13,3.4,11.87h-1.13c-0.89,0-1.6,0.71-1.6,1.6v4.45c0,0.89,0.71,1.6,1.6,1.6h6.89c0.89,0,1.6-0.77,1.6-1.6V37
			C390,36.11,389.29,35.4,388.4,35.4z"/>
	</g>
	<g>
		<g>
			<path class="st1" d="M384.24,22.81h-21.49c-1.31,0-2.43-1.07-2.43-2.43V9.63c0-1.31,1.07-2.43,2.43-2.43h21.49
				c1.31,0,2.43,1.07,2.43,2.43v10.75C386.62,21.74,385.55,22.81,384.24,22.81z"/>
			<path class="st2" d="M384.24,23.52h-21.49c-1.72,0-3.15-1.42-3.15-3.15V9.63c0-1.72,1.42-3.15,3.15-3.15h21.49
				c1.72,0,3.15,1.42,3.15,3.15v10.75C387.39,22.1,385.96,23.52,384.24,23.52z M362.75,7.97c-0.89,0-1.66,0.77-1.66,1.66v10.75
				c0,0.89,0.77,1.66,1.66,1.66h21.49c0.89,0,1.66-0.77,1.66-1.66V9.63c0-0.89-0.77-1.66-1.66-1.66
				C384.24,7.97,362.75,7.97,362.75,7.97z"/>
		</g>
		<g>
			<g>
				<line class="st3" x1="373.49" y1="22.93" x2="373.49" y2="37.47"/>
				<rect x="372.72" y="22.93" class="st2" width="1.48" height="14.55"/>
			</g>
			<g>
				<path class="st4" d="M376.94,42.28h-6.89c-0.47,0-0.89-0.42-0.89-0.89v-4.45c0-0.47,0.42-0.89,0.89-0.89h6.89
					c0.47,0,0.89,0.42,0.89,0.89v4.45C377.77,41.93,377.41,42.28,376.94,42.28z"/>
				<path class="st2" d="M376.94,43.06h-6.89c-0.89,0-1.6-0.71-1.6-1.6V37c0-0.89,0.71-1.6,1.6-1.6h6.89c0.89,0,1.6,0.71,1.6,1.6
					v4.45C378.54,42.34,377.83,43.06,376.94,43.06z M370.05,36.88c-0.06,0-0.12,0.06-0.12,0.12v4.45c0,0.06,0.06,0.12,0.12,0.12
					h6.89c0.06,0,0.12-0.06,0.12-0.12V37c0-0.06-0.06-0.12-0.12-0.12H370.05z"/>
			</g>
		</g>
		<path class="st2" d="M362.21,37.12l-0.77-1.25c4.04-2.49,5.58-6.77,4.81-12.94l1.48-0.18C368.51,29.46,366.67,34.27,362.21,37.12z
			"/>
		<g>
			<g>
				<path class="st5" d="M365.42,42.28h-6.89c-0.47,0-0.89-0.42-0.89-0.89v-4.45c0-0.47,0.42-0.89,0.89-0.89h6.89
					c0.47,0,0.89,0.42,0.89,0.89v4.45C366.25,41.87,365.9,42.28,365.42,42.28z"/>
				<path class="st2" d="M365.42,43.06h-6.89c-0.89,0-1.6-0.71-1.6-1.6V37c0-0.89,0.71-1.6,1.6-1.6h6.89c0.89,0,1.6,0.71,1.6,1.6
					v4.45C367.02,42.28,366.31,43.06,365.42,43.06z M358.53,36.88c-0.06,0-0.12,0.06-0.12,0.12v4.45c0,0.06,0.06,0.12,0.12,0.12
					h6.89c0.06,0,0.12-0.06,0.12-0.12V37c0-0.06-0.06-0.12-0.12-0.12H358.53z"/>
			</g>
		</g>
		<path class="st2" d="M384.78,37.12c-4.51-2.79-6.35-7.66-5.46-14.43l1.42,0.18c-0.77,6.23,0.77,10.45,4.81,12.94L384.78,37.12z"/>
		<g>
			<g>
				<path class="st6" d="M381.57,42.28h6.89c0.47,0,0.89-0.42,0.89-0.89v-4.45c0-0.47-0.42-0.89-0.89-0.89h-6.89
					c-0.47,0-0.89,0.42-0.89,0.89v4.45C380.68,41.87,381.09,42.28,381.57,42.28z"/>
				<path class="st2" d="M388.4,43.06h-6.89c-0.89,0-1.6-0.71-1.6-1.6V37c0-0.89,0.71-1.6,1.6-1.6h6.89c0.89,0,1.6,0.71,1.6,1.6
					v4.45C390,42.28,389.29,43.06,388.4,43.06z M381.57,36.88c-0.06,0-0.12,0.06-0.12,0.12v4.45c0,0.06,0.06,0.12,0.12,0.12h6.89
					c0.06,0,0.12-0.06,0.12-0.12V37c0-0.06-0.06-0.12-0.12-0.12H381.57z"/>
			</g>
		</g>
	</g>
</g>
<g>
	<path class="st1" d="M19.68,36.88l-0.87-3.64H12.9l-0.94,3.64H5.52l6.82-19.79h7.4l6.42,19.79H19.68z M15.93,21.4h-0.14
		c-0.02,0.22-0.08,0.58-0.19,1.09C15.49,23,14.93,25.17,13.93,29h3.78l-1.38-5.38C16.14,22.83,16,22.09,15.93,21.4z"/>
	<path class="st1" d="M37.02,36.88l-3.15-7.26h-0.06v7.26h-5.88V15.96h5.88v13.43h0.06l2.86-6.64h6.62l-3.82,6.47l4.04,7.66
		C43.57,36.88,37.02,36.88,37.02,36.88z"/>
	<path class="st1" d="M52.53,36.88v-2.15h-0.06c-0.94,1.67-2.37,2.5-4.31,2.5c-1.33,0-2.38-0.4-3.13-1.19
		c-0.75-0.79-1.13-1.85-1.13-3.17c0-2.78,1.71-4.39,5.12-4.83l3.51-0.46c0-0.46-0.21-0.84-0.62-1.13c-0.41-0.29-0.97-0.44-1.67-0.44
		c-1.58,0-3.25,0.45-5.01,1.35v-3.82c0.76-0.33,1.72-0.6,2.87-0.81c1.15-0.21,2.13-0.32,2.95-0.32c2.4,0,4.14,0.51,5.22,1.54
		s1.62,2.74,1.62,5.14v7.8h-5.36V36.88z M49.05,32.08c0,0.39,0.12,0.7,0.37,0.95s0.59,0.37,1.04,0.37c0.62,0,1.12-0.23,1.5-0.69
		s0.57-1.05,0.57-1.77V30.4l-1.99,0.28C49.55,30.85,49.05,31.32,49.05,32.08z"/>
	<path class="st1" d="M79.75,26.74c0,2.01-0.42,3.78-1.26,5.32c-0.84,1.54-2.04,2.73-3.61,3.57c-1.56,0.84-3.37,1.26-5.41,1.26
		h-8.38v-19.8h8.2C76.26,17.09,79.75,20.31,79.75,26.74z M73.41,26.79c0-0.97-0.2-1.84-0.59-2.61s-0.95-1.37-1.68-1.79
		s-1.58-0.63-2.57-0.63h-1.53v10.46h1.67c1.43,0,2.56-0.49,3.42-1.47S73.41,28.45,73.41,26.79z"/>
	<path class="st1" d="M89.84,36.88v-2.15h-0.06c-0.94,1.67-2.37,2.5-4.31,2.5c-1.33,0-2.38-0.4-3.13-1.19
		c-0.75-0.79-1.13-1.85-1.13-3.17c0-2.78,1.71-4.39,5.12-4.83l3.51-0.46c0-0.46-0.21-0.84-0.62-1.13c-0.41-0.29-0.97-0.44-1.67-0.44
		c-1.58,0-3.25,0.45-5.01,1.35v-3.82c0.76-0.33,1.72-0.6,2.87-0.81s2.13-0.32,2.95-0.32c2.4,0,4.14,0.51,5.22,1.54
		s1.62,2.74,1.62,5.14v7.8h-5.36V36.88z M86.36,32.08c0,0.39,0.12,0.7,0.37,0.95s0.59,0.37,1.04,0.37c0.62,0,1.12-0.23,1.5-0.69
		s0.57-1.05,0.57-1.77V30.4l-1.99,0.28C86.86,30.85,86.36,31.32,86.36,32.08z"/>
	<path class="st1" d="M106.94,36.88l-3.15-7.26h-0.06v7.26h-5.88V15.96h5.88v13.43h0.06l2.86-6.64h6.62l-3.82,6.47l4.04,7.66
		C113.49,36.88,106.94,36.88,106.94,36.88z"/>
	<path class="st1" d="M130.33,29.57c0,2.38-0.72,4.26-2.16,5.62c-1.44,1.36-3.45,2.04-6.04,2.04c-2.57,0-4.57-0.67-6-1.99
		c-1.43-1.33-2.15-3.16-2.15-5.5c0-1.5,0.34-2.8,1.01-3.91c0.67-1.1,1.63-1.95,2.87-2.54c1.24-0.59,2.67-0.88,4.29-0.88
		c1.67,0,3.13,0.31,4.35,0.92c1.23,0.62,2.17,1.47,2.83,2.57C130,26.99,130.33,28.22,130.33,29.57z M124.37,29.6
		c0-1.92-0.74-2.88-2.21-2.88s-2.21,1.01-2.21,3.02c0,2.13,0.75,3.19,2.24,3.19C123.64,32.92,124.37,31.81,124.37,29.6z"/>
</g>
<g>
	<path class="st1" d="M155.39,22.9c-0.16,0.28-0.35,0.82-0.61,1.59c-2.23,7.03-6.18,11.38-13.21,14.55
		c-0.68-1.34-1.66-2.6-2.81-3.58c6.18-2.23,10-5.95,11.74-11.41l-6.23,0.07c-1.45,2.32-3.33,4.36-5.32,5.88
		c-1.12-1.29-1.87-1.94-3.33-2.81c2.69-1.85,4.75-4.22,6.23-7.14c0.61-1.22,0.94-2.13,1.01-2.81l4.43,0.8
		c-0.12,0.23-0.14,0.26-0.28,0.56c-0.02,0.07-0.09,0.21-0.16,0.38c-0.09,0.21-0.19,0.42-0.21,0.49c-0.16,0.35-0.26,0.59-0.28,0.61
		c-0.02,0.07-0.09,0.23-0.19,0.4l5.32-0.05H152c-0.38-0.8-0.77-1.45-1.34-2.25l2.32-0.75c0.82,1.08,1.43,2.23,1.94,3.58l-0.73,0.26
		L155.39,22.9z M156.26,16.43c0.77,1.03,1.31,2.01,1.94,3.49l-2.22,0.82c-0.66-1.55-1.19-2.58-1.92-3.58L156.26,16.43z"/>
	<path class="st1" d="M160.6,23.86c1.05,0.14,1.8,0.19,3.77,0.19h11.76c1.12,0,1.29-0.02,1.87-0.26l1.83,1.97
		c-0.28,0.42-0.33,0.52-0.66,1.48c-1.22,3.49-2.9,6.11-5.2,8.03c-1.78,1.5-3.47,2.41-6.68,3.65c-0.61-1.38-1.26-2.34-2.62-3.84
		c2.81-0.73,4.5-1.48,6.18-2.74c1.71-1.26,2.74-2.6,3.61-4.68h-10.14c-1.85,0-2.25,0.02-3.72,0.14V23.86z M162.54,18
		c0.91,0.14,1.78,0.19,3.44,0.19h7.47c1.85,0,2.86-0.05,3.68-0.19v3.94c-0.89-0.07-1.99-0.12-3.61-0.12h-7.59
		c-1.85,0-2.37,0.02-3.4,0.12V18z"/>
	<path class="st1" d="M203.07,20.98c-0.26,0.4-0.3,0.52-0.49,1.31c-1.05,4.36-2.46,7.28-4.71,9.95c-2.18,2.6-4.8,4.47-8.92,6.37
		c-0.91-1.78-1.41-2.41-2.95-3.94c3.37-1.1,5.83-2.53,7.89-4.59c1.97-1.99,3.16-4.12,3.89-6.93h-9.72c-2.27,0-2.69,0.02-3.94,0.14
		v-4.24c1.01,0.16,1.71,0.19,4.01,0.19h11.12c0.77,0,1.2-0.07,1.71-0.3L203.07,20.98z"/>
	<path class="st1" d="M217.92,29.15c-1.69,0-2.25,0.02-3.44,0.12v-3.89c1.26,0.14,1.55,0.16,3.51,0.16h3.47v-3.16h-2.01
		c-1.99,0-2.23,0-3.54,0.12v-3.91c0.98,0.16,1.41,0.19,3.58,0.19h10c2.16,0,2.74-0.02,3.75-0.19v3.91
		c-1.17-0.09-1.71-0.12-3.68-0.12h-4v3.16h5.48c2.13,0,2.69-0.02,3.68-0.16v3.89c-1.19-0.09-1.73-0.12-3.61-0.12h-5.57v2.88
		c0,1.05,0.05,1.38,0.3,1.59c0.28,0.26,0.8,0.35,1.85,0.35c2.58,0,4.61-0.21,6.14-0.63l0.09,4.15c-0.23-0.02-0.23-0.02-0.45-0.02
		c-0.23,0-0.42,0-0.91,0.05c-1.5,0.14-3.68,0.23-4.92,0.23c-2.6,0-3.96-0.21-4.83-0.77c-0.96-0.61-1.36-1.73-1.36-3.75v-4.08H217.92
		z"/>
	<path class="st1" d="M237.98,31.68c1.41,0.16,1.73,0.19,3.91,0.19H254c2.34,0,3.07-0.02,4.15-0.19v4.38
		c-1.03-0.09-1.62-0.12-4.08-0.12h-12.25c-2.08,0-2.9,0.02-3.84,0.12V31.68z M240.34,20.04c1.1,0.14,1.76,0.16,3.65,0.16h7.94
		c2.06,0,2.88-0.05,3.89-0.16v4.29c-1.33-0.09-1.94-0.12-3.84-0.12h-8.03c-1.73,0-2.79,0.05-3.61,0.12V20.04z"/>
	<path class="st1" d="M272.25,17.84c-0.02,0.05-0.35,0.7-1.01,2.04l6.3-0.07c0.68,0,0.98-0.07,1.43-0.3l2.08,2.06
		c-0.28,0.3-0.35,0.45-0.54,1.01c-1.38,4.17-2.62,6.7-4.36,9.04c-1.5,2.01-3.42,3.79-5.69,5.29c-1.26,0.82-2.23,1.33-4.03,2.16
		c-0.87-1.52-1.43-2.25-2.74-3.51c3.56-1.26,5.83-2.65,7.94-4.8c-1.45-1.19-2.6-1.94-4.36-2.9l2.46-2.95
		c2.08,1.12,2.83,1.59,4.31,2.67c0.96-1.48,1.52-2.74,2.01-4.29l-6.49,0.05c-1.36,2.34-2.97,4.26-5.34,6.35
		c-1.12-1.22-1.85-1.8-3.37-2.65c2.76-2.18,4.45-4.12,5.83-6.72c0.66-1.19,1.05-2.2,1.36-3.28L272.25,17.84z"/>
	<path class="st1" d="M291.72,18.19c-0.09,1.08-0.12,1.5-0.12,3.14v4.66c0,1.66,0.02,2.41,0.12,3.35h-4.54
		c0.12-0.84,0.14-1.66,0.14-3.42v-4.64c0-1.43-0.02-2.06-0.14-3.09H291.72z M302.61,18.19c-0.09,1.31-0.12,1.66-0.12,3.16v2.74
		c0,3.21-0.19,5.46-0.54,6.82c-0.7,2.55-2.3,4.47-4.87,5.95c-1.33,0.77-2.58,1.26-4.87,1.92c-0.54-1.57-1.12-2.55-2.39-4.01
		c2.25-0.42,3.44-0.8,4.64-1.43c2.06-1.1,3.12-2.48,3.49-4.54c0.14-0.87,0.26-2.93,0.26-4.97V21.4c0-1.71-0.02-2.2-0.14-3.21H302.61
		z"/>
	<path class="st1" d="M311.47,18.8c2.95,1.73,4.47,2.81,6.44,4.59l-2.76,3.65c-2.04-2.13-4.03-3.68-6.37-4.94L311.47,18.8z
		 M309.01,33.34c2.39-0.19,4.85-0.77,7.05-1.69c2.95-1.22,5.06-2.98,6.86-5.79c0.98-1.5,1.62-2.79,2.3-4.59
		c1.15,1.38,1.69,1.85,3.44,3.14c-2.13,4.61-4.36,7.38-7.64,9.49c-2.53,1.64-4.75,2.51-9.11,3.51c-0.91,0.21-1.05,0.23-1.69,0.42
		L309.01,33.34z"/>
	<path class="st1" d="M350.61,22.9c-0.16,0.28-0.35,0.82-0.61,1.59c-2.23,7.03-6.18,11.38-13.21,14.55
		c-0.68-1.34-1.66-2.6-2.81-3.58c6.18-2.23,10-5.95,11.74-11.41l-6.23,0.07c-1.45,2.32-3.33,4.36-5.32,5.88
		c-1.12-1.29-1.87-1.94-3.33-2.81c2.69-1.85,4.75-4.22,6.23-7.14c0.61-1.22,0.94-2.13,1.01-2.81l4.43,0.8
		c-0.12,0.23-0.14,0.26-0.28,0.56c-0.02,0.07-0.09,0.21-0.16,0.38c-0.09,0.21-0.19,0.42-0.21,0.49c-0.16,0.35-0.26,0.59-0.28,0.61
		c-0.02,0.07-0.09,0.23-0.19,0.4l5.32-0.05h0.52c-0.38-0.8-0.77-1.45-1.34-2.25l2.32-0.75c0.82,1.08,1.43,2.23,1.94,3.58l-0.73,0.26
		L350.61,22.9z M351.48,16.43c0.77,1.03,1.31,2.01,1.94,3.49l-2.22,0.82c-0.66-1.55-1.19-2.58-1.92-3.58L351.48,16.43z"/>
</g>
</svg>
