<?xml version="1.0" encoding="UTF-8"?>
<svg id="_レイヤー_1" data-name="レイヤー 1" xmlns="http://www.w3.org/2000/svg" version="1.1" viewBox="0 0 30 30">
  <defs>
    <style>
      .cls-1 {
        fill: #424242;
      }

      .cls-1, .cls-2 {
        stroke-width: 0px;
      }

      .cls-2 {
        fill: #fff;
      }
    </style>
  </defs>
  <g>
    <path class="cls-1" d="M27.7,29.7H2.3V.3h16.2l9.2,9.1v20.3h0ZM3.8,28.2h22.5V10.1L17.9,1.8H3.8v26.4Z"/>
    <polygon class="cls-1" points="27 10.6 17.4 10.6 17.4 1.1 18.9 1.1 18.9 9.1 27 9.1 27 10.6"/>
  </g>
  <rect class="cls-1" x="5" y="13.3" width="20" height="8.7"/>
  <g>
    <path class="cls-2" d="M8.7,18.9c0,.8-.5,1.2-1.5,1.2s-.8-.1-1.2-.3l.2-.7h.2c.2.2.6.3.9.3.4,0,.6-.2.6-.6v-3.5h.9v3.6Z"/>
    <path class="cls-2" d="M12.5,17.6c.5.2.7.6.7,1.2,0,.9-.6,1.4-1.9,1.4s-.7,0-1-.2-.6-.2-.8-.4l.3-.7h.1c.2.2.4.3.7.4.3,0,.5.1.7.1.3,0,.5,0,.7,0,.2,0,.4-.2.4-.5,0,0,0-.2,0-.3,0-.1-.2-.2-.3-.3-.2,0-.4-.1-.7-.2-.4,0-.7-.2-.8-.2-.4-.1-.6-.3-.8-.4s-.2-.4-.2-.8.2-.8.6-1.1c.3-.2.8-.3,1.4-.3.6,0,1.1.2,1.5.5l-.3.6h-.1c-.1-.1-.3-.2-.5-.3-.2,0-.4-.1-.6-.1-.7,0-1.1.2-1.1.6,0,.3.1.5.4.6.3,0,.5.2.9.2.4,0,.7.2.9.3Z"/>
    <path class="cls-2" d="M16.2,15.2c.8,0,1.4.2,1.9.7.4.4.6,1,.6,1.8,0,1.6-.8,2.4-2.4,2.4-1.6,0-2.4-.8-2.4-2.4,0-.7.2-1.3.6-1.7.4-.5,1.1-.7,1.9-.8ZM16.2,19.4c.5,0,.9-.1,1.2-.4.2-.3.4-.7.4-1.3,0-1.2-.5-1.8-1.5-1.8-.5,0-.9.1-1.1.5s-.4.8-.4,1.3c0,1.2.5,1.7,1.5,1.7Z"/>
    <path class="cls-2" d="M22.8,20l-2.5-3.5v3.6h-.9v-4.7h1l2.3,3.2v-3.2h.9v4.7h-.8Z"/>
  </g>
</svg>