<?xml version="1.0" encoding="utf-8"?>
<!-- Generator: Adobe Illustrator 26.3.1, SVG Export Plug-In . SVG Version: 6.00 Build 0)  -->
<svg version="1.1" id="レイヤー_1" xmlns="http://www.w3.org/2000/svg" xmlns:xlink="http://www.w3.org/1999/xlink" x="0px"
	 y="0px" viewBox="0 0 20 20" enable-background="new 0 0 20 20" xml:space="preserve">
<path fill="#333333" d="M0.2,10c2.759-5.412,9.384-7.563,14.796-4.804C17.064,6.25,18.746,7.932,19.8,10
	c-2.759,5.412-9.384,7.563-14.796,4.804C2.936,13.75,1.254,12.068,0.2,10z M10,14c2.209,0,4-1.791,4-4s-1.791-4-4-4s-4,1.791-4,4
	S7.791,14,10,14z M10,12c-1.105,0-2-0.895-2-2s0.895-2,2-2s2,0.895,2,2S11.105,12,10,12z"/>
</svg>
