<?xml version="1.0" encoding="utf-8"?>
<!-- Generator: Adobe Illustrator 26.3.1, SVG Export Plug-In . SVG Version: 6.00 Build 0)  -->
<svg version="1.1" id="レイヤー_1" xmlns="http://www.w3.org/2000/svg" xmlns:xlink="http://www.w3.org/1999/xlink" x="0px"
	 y="0px" viewBox="0 0 30 30" style="enable-background:new 0 0 30 30;" xml:space="preserve">
<style type="text/css">
	.st0{fill:#FFFFFF;}
	.st1{fill:#424242;}
	.st2{fill:#CCCCCC;}
</style>
<g>
	<g>
		<rect x="7.59" y="1.23" class="st0" width="14.83" height="9.53"/>
		<path class="st1" d="M23.14,11.49H6.86V0.51h16.27V11.49z M8.31,10.04h13.38V1.95H8.31V10.04z"/>
	</g>
	<g>
		<path class="st2" d="M26.59,23.47H3.41c-1.2,0-2.18-0.98-2.18-2.18V10.82c0-1.2,0.98-2.18,2.18-2.18h23.18
			c1.2,0,2.18,0.98,2.18,2.18v10.47C28.77,22.5,27.79,23.47,26.59,23.47z"/>
		<path class="st1" d="M26.59,24.2H3.41c-1.6,0-2.9-1.3-2.9-2.9V10.82c0-1.6,1.3-2.9,2.9-2.9h23.18c1.6,0,2.9,1.3,2.9,2.9v10.47
			C29.49,22.89,28.19,24.2,26.59,24.2z M3.41,9.37c-0.8,0-1.46,0.65-1.46,1.46v10.47c0,0.8,0.65,1.46,1.46,1.46h23.18
			c0.8,0,1.46-0.65,1.46-1.46V10.82c0-0.8-0.65-1.46-1.46-1.46H3.41z"/>
	</g>
	<g>
		<rect x="7.59" y="17.12" class="st0" width="14.83" height="11.65"/>
		<path class="st1" d="M23.14,29.49H6.86V16.4h16.27V29.49z M8.31,28.05h13.38V17.84H8.31V28.05z"/>
	</g>
	<circle class="st1" cx="24" cy="12.35" r="1.59"/>
	<g>
		<path class="st1" d="M19.24,21.08h-9.15c-0.4,0-0.72-0.32-0.72-0.72s0.32-0.72,0.72-0.72h9.15c0.4,0,0.72,0.32,0.72,0.72
			S19.64,21.08,19.24,21.08z"/>
		<path class="st1" d="M16.6,23.68h-6.51c-0.4,0-0.72-0.32-0.72-0.72s0.32-0.72,0.72-0.72h6.51c0.4,0,0.72,0.32,0.72,0.72
			S17,23.68,16.6,23.68z"/>
		<path class="st1" d="M19.24,26.28h-9.15c-0.4,0-0.72-0.32-0.72-0.72s0.32-0.72,0.72-0.72h9.15c0.4,0,0.72,0.32,0.72,0.72
			S19.64,26.28,19.24,26.28z"/>
	</g>
</g>
</svg>
