<?xml version="1.0" encoding="utf-8"?>
<!-- Generator: Adobe Illustrator 26.3.1, SVG Export Plug-In . SVG Version: 6.00 Build 0)  -->
<svg version="1.1" id="レイヤー_1" xmlns="http://www.w3.org/2000/svg" xmlns:xlink="http://www.w3.org/1999/xlink" x="0px"
	 y="0px" viewBox="0 0 28 38" style="enable-background:new 0 0 28 38;" xml:space="preserve">
<style type="text/css">
	.st0{fill:#FFFFFF;}
</style>
<path class="st0" d="M21.4,6.2h-2.1c-1.8,0-3.2,1.4-3.2,3.1v19.1c0,1.8,1.4,3.2,3.2,3.2l2.1,0.1c1.8,0,3.2-1.4,3.2-3.2V9.5
	C24.6,7.7,23.2,6.2,21.4,6.2z M8.7,6.2H6.6c-1.8,0-3.2,1.4-3.2,3.2v19.1c0,1.8,1.4,3.2,3.2,3.2h2.1c1.8,0,3.2-1.4,3.2-3.2V9.5
	C11.9,7.7,10.5,6.2,8.7,6.2z"/>
</svg>
