<?xml version="1.0" encoding="utf-8"?>
<!-- Generator: Adobe Illustrator 26.3.1, SVG Export Plug-In . SVG Version: 6.00 Build 0)  -->
<svg version="1.1" id="レイヤー_1" xmlns="http://www.w3.org/2000/svg" xmlns:xlink="http://www.w3.org/1999/xlink" x="0px"
	 y="0px" viewBox="0 0 30 30" style="enable-background:new 0 0 30 30;" xml:space="preserve">
<style type="text/css">
	.st0{fill:#424242;}
</style>
<path class="st0" d="M22.92,20.19c-1.35,0-2.53,0.67-3.25,1.7l-9.92-5.34c0.07-0.29,0.11-0.59,0.11-0.9c0-0.34-0.06-0.67-0.14-0.98
	l9.78-5.53c0.69,1.18,1.95,1.97,3.42,1.97c2.19,0,3.97-1.78,3.97-3.97c0-2.19-1.78-3.97-3.97-3.97c-2.17,0-3.93,1.75-3.97,3.91
	L8.72,12.87C8,12.14,7,11.68,5.89,11.68c-2.19,0-3.97,1.78-3.97,3.97c0,2.19,1.78,3.97,3.97,3.97c1.14,0,2.16-0.48,2.88-1.25
	l10.2,5.49c-0.01,0.1-0.03,0.2-0.03,0.3c0,2.19,1.78,3.97,3.97,3.97c2.19,0,3.97-1.78,3.97-3.97S25.11,20.19,22.92,20.19z"/>
</svg>
