<?xml version="1.0" encoding="utf-8"?>
<!-- Generator: Adobe Illustrator 26.3.1, SVG Export Plug-In . SVG Version: 6.00 Build 0)  -->
<svg version="1.1" id="レイヤー_1" xmlns="http://www.w3.org/2000/svg" xmlns:xlink="http://www.w3.org/1999/xlink" x="0px"
	 y="0px" viewBox="0 0 20 20" enable-background="new 0 0 20 20" xml:space="preserve">
<path fill="#333333" d="M12.81,4.36l-1.77,1.78c-2.134-0.573-4.327,0.693-4.9,2.827c-0.182,0.679-0.182,1.394,0,2.073l-2.76,2.75
	c-1.32-1-2.42-2.3-3.18-3.79c2.351-4.609,7.596-6.957,12.6-5.64H12.81z M16.61,6.21c1.33,1,2.43,2.3,3.2,3.79
	c-2.353,4.618-7.61,6.968-12.62,5.64l1.77-1.78c2.134,0.573,4.327-0.693,4.9-2.827c0.182-0.679,0.182-1.394,0-2.073l2.76-2.75
	L16.61,6.21z M16.36,2.22l1.42,1.42L3.64,17.78l-1.42-1.42L16.36,2.22z"/>
</svg>
