<?xml version="1.0" encoding="utf-8"?>
<!-- Generator: Adobe Illustrator 26.3.1, SVG Export Plug-In . SVG Version: 6.00 Build 0)  -->
<svg version="1.1" id="レイヤー_1" xmlns="http://www.w3.org/2000/svg" xmlns:xlink="http://www.w3.org/1999/xlink" x="0px"
	 y="0px" viewBox="0 0 24 24" enable-background="new 0 0 24 24" xml:space="preserve">
<path fill-rule="evenodd" clip-rule="evenodd" fill="#999999" d="M4,5C3.448,5,3,5.448,3,6v14c0,0.552,0.448,1,1,1h14
	c0.552,0,1-0.448,1-1V9.5h2V20c0,1.657-1.343,3-3,3H4c-1.657,0-3-1.343-3-3V6c0-1.657,1.343-3,3-3h10.5v2H4z"/>
<path fill-rule="evenodd" clip-rule="evenodd" fill="#999999" d="M20.707,1.293c-0.39-0.391-1.024-0.391-1.414,0l-8,8
	c-0.11,0.11-0.193,0.244-0.242,0.391l-1,3c-0.12,0.359-0.026,0.755,0.242,1.023c0.268,0.268,0.664,0.361,1.023,0.242l3-1
	c0.147-0.049,0.281-0.132,0.391-0.242l8-8c0.391-0.391,0.391-1.024,0-1.414L20.707,1.293z"/>
</svg>
